<?xml version="1.0" encoding="utf-8"?>
<!-- Generator: Adobe Illustrator 25.1.0, SVG Export Plug-In . SVG Version: 6.00 Build 0)  -->
<svg version="1.1" id="Layer_1" xmlns="http://www.w3.org/2000/svg" xmlns:xlink="http://www.w3.org/1999/xlink" x="0px" y="0px"
	 viewBox="0 0 58 22" style="enable-background:new 0 0 58 22;" xml:space="preserve">
<style type="text/css">
	.st0{fill:none;stroke:#E1C8AA;stroke-width:1.5;stroke-linecap:round;stroke-linejoin:round;stroke-miterlimit:10;}
</style>
<g>
	<path class="st0" d="M1.5,21.1v-9.9c0-0.1,0-0.2,0.1-0.2l4.7-9.6C6.4,1,6.9,1,7.1,1.4l4.3,9.6c0,0.1,0,0.1,0,0.2v10"/>
	<line class="st0" x1="1.8" y1="11" x2="11.3" y2="11"/>
</g>
<path class="st0" d="M16.5,21V1.9c0-0.6,0.4-1,1-1h8.3c0.6,0,1,0.4,1,1v8c0,0.6-0.5,1-1,1l-6.5-0.1"/>
<path class="st0" d="M33.5,1.1h8l0,18c0,1.1-0.9,2-2,2h-8v-18C31.5,2,32.4,1.1,33.5,1.1z"/>
<path class="st0" d="M46.4,1.1h8c1.1,0,2,0.9,2,2l0,16c0,1.1-0.9,2-2,2h-8V1.1z"/>
</svg>
