<?xml version="1.0" encoding="utf-8"?>
<!-- Generator: Adobe Illustrator 25.1.0, SVG Export Plug-In . SVG Version: 6.00 Build 0)  -->
<svg version="1.1" id="Layer_1" xmlns="http://www.w3.org/2000/svg" xmlns:xlink="http://www.w3.org/1999/xlink" x="0px" y="0px"
	 viewBox="0 0 152 22" style="enable-background:new 0 0 152 22;" xml:space="preserve">
<style type="text/css">
	.st0{fill:none;stroke:#E1C8AA;stroke-width:1.5;stroke-linecap:round;stroke-linejoin:round;stroke-miterlimit:10;}
</style>
<g>
	<path class="st0" d="M50.8,21.1V1.9c0-0.6,0.4-1,1-1h8.3c0.6,0,1,0.4,1,1v8c0,0.6-0.5,1-1,1l-6.5-0.1c-0.9,0-1.4,1.1-0.7,1.7
		l8.2,8.5"/>
	<path class="st0" d="M96,1h-9c-0.6,0-1,0.4-1,1v7.9c0,0.6,0.4,1,1,1h8c0.6,0,1,0.4,1,1V20c0,0.6-0.4,1-1,1h-9"/>
	<path class="st0" d="M72,1h9l0,19c0,0.6-0.4,1-1,1h-9V2C71,1.4,71.4,1,72,1z"/>
	<path class="st0" d="M31,1h-9c-0.6,0-1,0.4-1,1v18c0,0.6,0.4,1,1,1h9"/>
	<path class="st0" d="M36,1v19c0,0.6,0.4,1,1,1h8c0.6,0,1-0.4,1-1V1"/>
	<line class="st0" x1="66" y1="21" x2="66" y2="1"/>
	<line class="st0" x1="101" y1="1" x2="101" y2="21"/>
	<path class="st0" d="M106,1h4c0.6,0,1,0.4,1,1v19"/>
	<line class="st0" x1="116" y1="1" x2="112.7" y2="1"/>
	<path class="st0" d="M131,1l-4.7,9.8c-0.1,0.1-0.1,0.3-0.1,0.4L126,21"/>
	<line class="st0" x1="121" y1="1" x2="125.2" y2="9.4"/>
</g>
</svg>
