<?xml version="1.0" encoding="utf-8"?>
<!-- Generator: Adobe Illustrator 25.1.0, SVG Export Plug-In . SVG Version: 6.00 Build 0)  -->
<svg version="1.1" id="Layer_1" xmlns="http://www.w3.org/2000/svg" xmlns:xlink="http://www.w3.org/1999/xlink" x="0px" y="0px"
	 viewBox="0 0 36 36" style="enable-background:new 0 0 36 36;" xml:space="preserve">
<style type="text/css">
	.st0{fill:#E1C8AA;}
</style>
<g>
	<path class="st0" d="M13.8,29.5c0-0.9,0.2-1.7,0.4-2.7l2.6-11H8.6l0.9-4.1h13.3l-3.5,15.4c-0.1,0.5-0.2,1-0.2,1.4
		c0,2.2,1.3,3.1,3.2,3.1c1.3,0,2.5-0.4,4.1-1.1l1.1,3.9c-2,0.9-4,1.5-6.8,1.5C16.5,35.8,13.8,33.5,13.8,29.5z M17.2,4.1
		c0-2.1,1.8-3.9,4.1-3.9c2.1,0,3.5,1.1,3.5,3.2c0,2.2-1.9,3.9-4.1,3.9C18.8,7.3,17.2,6.2,17.2,4.1z"/>
</g>
</svg>
