<?xml version="1.0" encoding="utf-8"?>
<!-- Generator: Adobe Illustrator 25.1.0, SVG Export Plug-In . SVG Version: 6.00 Build 0)  -->
<svg version="1.1" xmlns="http://www.w3.org/2000/svg" xmlns:xlink="http://www.w3.org/1999/xlink" x="0px" y="0px"
	 viewBox="0 0 90 90" style="enable-background:new 0 0 90 90;" xml:space="preserve">
<style type="text/css">
	.st0{fill:#A05555;}
	.st1{fill:none;stroke:#E1C8AA;stroke-width:3;stroke-miterlimit:10;}
	.st2{fill:#E1C8AA;}
	.st3{fill:url(#SVGID_1_);}
	.st4{fill:url(#SVGID_2_);}
</style>
<g id="Layer_4">
	<g>
		<rect class="st0" width="90" height="90"/>
	</g>
</g>
<g id="arrow">
	<g>
		<g>
			<path class="st1" d="M76,67c-3,0.1-7.8,0-13.5-2c-2.3-0.8-4.3-1.8-6.1-2.8"/>
			<g>
				<polygon class="st2" points="61.3,58.1 49.4,57 54.4,67.9 				"/>
			</g>
		</g>
	</g>
</g>
<g id="Shadow">
	<linearGradient id="SVGID_1_" gradientUnits="userSpaceOnUse" x1="45" y1="45" x2="90" y2="90">
		<stop  offset="0" style="stop-color:#4D4D4D"/>
		<stop  offset="0.1413" style="stop-color:#4D4D4D;stop-opacity:0.8587"/>
		<stop  offset="1" style="stop-color:#4D4D4D;stop-opacity:0"/>
	</linearGradient>
	<polygon class="st3" points="90,0 90,90 0,90 	"/>
</g>
<g id="Leaf">
	<linearGradient id="SVGID_2_" gradientUnits="userSpaceOnUse" x1="1.009539e-09" y1="-1.011358e-09" x2="45.0055" y2="45.0055">
		<stop  offset="0" style="stop-color:#CCCCCC"/>
		<stop  offset="8.825167e-02" style="stop-color:#D9D9D9"/>
		<stop  offset="0.2597" style="stop-color:#ECECEC"/>
		<stop  offset="0.4341" style="stop-color:#F8F8F8"/>
		<stop  offset="0.6142" style="stop-color:#FCFCFC"/>
		<stop  offset="0.6771" style="stop-color:#F7F7F7"/>
		<stop  offset="0.7482" style="stop-color:#EAEAEA"/>
		<stop  offset="0.8234" style="stop-color:#D3D3D3"/>
		<stop  offset="0.9013" style="stop-color:#B3B3B3"/>
		<stop  offset="0.9807" style="stop-color:#8B8B8B"/>
		<stop  offset="1" style="stop-color:#808080"/>
	</linearGradient>
	<path class="st4" d="M90,0c0,0-3.5,4.5-21.5,5.5S0,0,0,0s6.5,50.5,5.5,68.5S0,90,0,90L90,0z"/>
</g>
</svg>
