<?xml version="1.0" encoding="utf-8"?>
<!-- Generator: Adobe Illustrator 25.1.0, SVG Export Plug-In . SVG Version: 6.00 Build 0)  -->
<svg version="1.1" id="Layer_1" xmlns="http://www.w3.org/2000/svg" xmlns:xlink="http://www.w3.org/1999/xlink" x="0px" y="0px"
	 viewBox="0 0 284 42" style="enable-background:new 0 0 284 42;" xml:space="preserve">
<style type="text/css">
	.st0{fill:none;stroke:#E6A05F;stroke-width:1.5;stroke-linecap:round;stroke-linejoin:round;stroke-miterlimit:10;}
</style>
<path class="st0" d="M151.1,41.1V2.9c0-1.1,0.9-2,2-2h16.7c1.1,0,2,0.9,2,2V19c0,1.1-0.9,2-2,2l-13-0.2c-1.8,0-2.7,2.1-1.5,3.4
	l16.5,17"/>
<g>
	<path class="st0" d="M121.1,41.1V21.2c0-0.2,0-0.3,0.1-0.4l9.3-19.1c0.4-0.7,1.4-0.7,1.8,0l8.6,19.1c0.1,0.1,0.1,0.3,0.1,0.4v19.9"
		/>
	<line class="st0" x1="121.6" y1="21" x2="140.6" y2="21"/>
</g>
<path class="st0" d="M91,41.1v-39c0-1.1,1.4-1.4,1.9-0.4l7.2,18.5c0.4,0.7,1.4,0.7,1.8,0l7.4-18.6c0.5-0.9,1.9-0.6,1.9,0.5v39"/>
<path class="st0" d="M201.1,1.1h-18c-1.1,0-2,0.9-2,2V19c0,1.1,0.9,2,2,2h15.9c1.1,0,2,0.9,2,2v16.1c0,1.1-0.9,2-2,2h-17.9"/>
<g>
	<path class="st0" d="M1,21.1V1.7C1,1.1,1.7,1,2,1.4l3.6,9.2c0.2,0.4,0.7,0.4,0.9,0l3.7-9.3c0.2-0.5,0.9-0.3,0.9,0.2v19.5"/>
	<path class="st0" d="M46.1,1.1h-9c-0.6,0-1,0.4-1,1v7.9c0,0.6,0.4,1,1,1h8c0.6,0,1,0.4,1,1v8.1c0,0.6-0.4,1-1,1h-9"/>
	<path class="st0" d="M31.1,1.1h-9c-0.6,0-1,0.4-1,1v7.9c0,0.6,0.4,1,1,1h8c0.6,0,1,0.4,1,1v8.1c0,0.6-0.4,1-1,1h-9"/>
	<line class="st0" x1="16" y1="1.1" x2="16" y2="21.1"/>
	<line class="st0" x1="51" y1="1.1" x2="51" y2="21.1"/>
	<path class="st0" d="M57,1.1h9l0,19c0,0.6-0.4,1-1,1h-9v-19C56,1.6,56.5,1.1,57,1.1z"/>
	<path class="st0" d="M71,21.1V1.7C71,1.2,71.8,1,72,1.5l8.2,19.3c0.2,0.5,0.9,0.3,0.9-0.2V1.1"/>
</g>
<g>
	<g>
		<path class="st0" d="M243,21.1v-9.9c0-0.1,0-0.2,0.1-0.2l4.7-9.6c0.2-0.4,0.7-0.4,0.9,0l4.3,9.6c0,0.1,0,0.1,0,0.2v10"/>
		<line class="st0" x1="243.3" y1="11.1" x2="252.8" y2="11.1"/>
	</g>
	<g>
		<path class="st0" d="M273,21.1v-9.9c0-0.1,0-0.2,0.1-0.2l4.7-9.6c0.2-0.4,0.7-0.4,0.9,0l4.3,9.6c0,0.1,0,0.1,0,0.2v10"/>
		<line class="st0" x1="273.3" y1="11.1" x2="282.8" y2="11.1"/>
	</g>
	<path class="st0" d="M268,1.1h-9c-0.6,0-1,0.4-1,1v7.9c0,0.6,0.4,1,1,1h8c0.6,0,1,0.4,1,1v8.1c0,0.6-0.4,1-1,1h-9"/>
	<path class="st0" d="M228.5,21.1V1.7c0-0.5,0.7-0.7,0.9-0.2l8.2,19.3c0.2,0.5,0.9,0.3,0.9-0.2V1.1"/>
</g>
</svg>
