<?xml version="1.0" encoding="utf-8"?>
<!-- Generator: Adobe Illustrator 25.1.0, SVG Export Plug-In . SVG Version: 6.00 Build 0)  -->
<svg version="1.1" id="Layer_1" xmlns="http://www.w3.org/2000/svg" xmlns:xlink="http://www.w3.org/1999/xlink" x="0px" y="0px"
	 viewBox="0 0 152 22" style="enable-background:new 0 0 152 22;" xml:space="preserve">
<style type="text/css">
	.st0{fill:none;stroke:#E1C8AA;stroke-width:1.5;stroke-linecap:round;stroke-linejoin:round;stroke-miterlimit:10;}
</style>
<g>
	<path class="st0" d="M16,21V1.9c0-0.6,0.4-1,1-1h8.3c0.6,0,1,0.4,1,1v8c0,0.6-0.5,1-1,1l-6.5-0.1"/>
	<path class="st0" d="M31.1,21V1.9c0-0.6,0.4-1,1-1h8.3c0.6,0,1,0.4,1,1v8c0,0.6-0.5,1-1,1l-6.5-0.1"/>
	<path class="st0" d="M61.7,21V1.9c0-0.6,0.4-1,1-1H71c0.6,0,1,0.4,1,1v8c0,0.6-0.5,1-1,1l-6.5-0.1c-0.9,0-1.4,1.1-0.7,1.7L72,21"/>
	<path class="st0" d="M2.1,1.1h9l0,19c0,0.6-0.4,1-1,1h-9v-19C1.1,1.5,1.6,1.1,2.1,1.1z"/>
	<path class="st0" d="M47.1,1.1h9l0,19c0,0.6-0.4,1-1,1h-9v-19C46.1,1.5,46.6,1.1,47.1,1.1z"/>
	<path class="st0" d="M106.4,21V1.6c0-0.5,0.7-0.7,0.9-0.2l8.2,19.3c0.2,0.5,0.9,0.3,0.9-0.2V1"/>
	<path class="st0" d="M91.2,1.1v19c0,0.6,0.4,1,1,1h8c0.6,0,1-0.4,1-1v-19"/>
	<line class="st0" x1="121.2" y1="1" x2="121.2" y2="21"/>
	<path class="st0" d="M76.2,1.1h4c0.6,0,1,0.4,1,1v19"/>
	<line class="st0" x1="86.2" y1="1.1" x2="82.9" y2="1.1"/>
	<path class="st0" d="M126.2,1.1h4c0.6,0,1,0.4,1,1v19"/>
	<line class="st0" x1="136.2" y1="1.1" x2="132.9" y2="1.1"/>
	<path class="st0" d="M150.9,1l-4.7,9.8c-0.1,0.1-0.1,0.3-0.1,0.4l-0.2,9.8"/>
	<line class="st0" x1="140.8" y1="1" x2="145.1" y2="9.3"/>
</g>
</svg>
