<?xml version="1.0" encoding="utf-8"?>
<!-- Generator: Adobe Illustrator 25.1.0, SVG Export Plug-In . SVG Version: 6.00 Build 0)  -->
<svg version="1.1" id="Layer_1" xmlns="http://www.w3.org/2000/svg" xmlns:xlink="http://www.w3.org/1999/xlink" x="0px" y="0px"
	 viewBox="0 0 152 22" style="enable-background:new 0 0 152 22;" xml:space="preserve">
<style type="text/css">
	.st0{fill:none;stroke:#E1C8AA;stroke-width:1.5;stroke-linecap:round;stroke-linejoin:round;stroke-miterlimit:10;}
</style>
<g>
	<path class="st0" d="M16,21V1.9c0-0.6,0.4-1,1-1h8.3c0.6,0,1,0.4,1,1v8c0,0.6-0.5,1-1,1l-6.5-0.1"/>
	<path class="st0" d="M36,21V1.9c0-0.6,0.4-1,1-1h8.3c0.6,0,1,0.4,1,1v8c0,0.6-0.5,1-1,1l-6.5-0.1c-0.9,0-1.4,1.1-0.7,1.7l8.2,8.5"
		/>
	<path class="st0" d="M11,1H2C1.4,1,1,1.4,1,2v8c0,0.6,0.4,1,1,1h8c0.6,0,1,0.4,1,1v8c0,0.6-0.4,1-1,1H1"/>
	<line class="st0" x1="31" y1="1" x2="31" y2="21"/>
	<line class="st0" x1="51" y1="1" x2="51" y2="21"/>
	<path class="st0" d="M56,1.1h4c0.6,0,1,0.4,1,1v19"/>
	<line class="st0" x1="66" y1="1.1" x2="62.7" y2="1.1"/>
</g>
</svg>
