<?xml version="1.0" encoding="utf-8"?>
<!-- Generator: Adobe Illustrator 25.1.0, SVG Export Plug-In . SVG Version: 6.00 Build 0)  -->
<svg version="1.1" id="Layer_1" xmlns="http://www.w3.org/2000/svg" xmlns:xlink="http://www.w3.org/1999/xlink" x="0px" y="0px"
	 viewBox="0 0 48 48" style="enable-background:new 0 0 48 48;" xml:space="preserve">
<style type="text/css">
	.st0{fill:#E1C8AA;}
	.st1{fill:none;stroke:#E1C8AA;stroke-width:1.5;stroke-miterlimit:10;}
</style>
<g>
	<path class="st0" d="M32.7,9.2c0.3,0,0.5,0.2,0.5,0.5v30.1c0,0.3-0.2,0.5-0.5,0.5h-16c-0.3,0-0.5-0.2-0.5-0.5V9.7
		c0-0.3,0.2-0.5,0.5-0.5H32.7 M32.7,7.7h-16c-1.1,0-2,0.9-2,2v30.1c0,1.1,0.9,2,2,2h16c1.1,0,2-0.9,2-2V9.7
		C34.7,8.6,33.8,7.7,32.7,7.7L32.7,7.7z"/>
</g>
<g>
	<path class="st0" d="M30.7,13.3v22.9h-12V13.3H30.7 M31.7,12.3h-14v23.9c0,0.6,0.4,1,1,1h12c0.6,0,1-0.4,1-1V12.3L31.7,12.3z"/>
</g>
<g>
	<g>
		<path class="st1" d="M25.8,1c6.5,0,10.5,2.9,12.2,7.6"/>
		<g>
			<polygon class="st0" points="35.4,7.5 39,15.1 39.7,6.7 			"/>
		</g>
	</g>
</g>
<g>
	<g>
		<path class="st1" d="M22.2,47c-6.5,0-10.5-2.9-12.2-7.6"/>
		<g>
			<polygon class="st0" points="12.6,40.5 9,32.9 8.3,41.3 			"/>
		</g>
	</g>
</g>
</svg>
